<?xml version="1.0" encoding="utf-8"?>
<!-- Generator: Adobe Illustrator 22.1.0, SVG Export Plug-In . SVG Version: 6.00 Build 0)  -->
<svg version="1.1" id="Layer_1" xmlns="http://www.w3.org/2000/svg" xmlns:xlink="http://www.w3.org/1999/xlink" x="0px" y="0px"
	 viewBox="0 0 300 300" style="enable-background:new 0 0 300 300;" xml:space="preserve">
<style type="text/css">
	.st0{clip-path:url(#SVGID_2_);}
	.st1{fill:url(#SVGID_3_);}
	.st2{fill:url(#SVGID_4_);}
	.st3{fill:url(#SVGID_5_);}
	.st4{fill:url(#SVGID_6_);}
	.st5{fill:url(#SVGID_7_);}
	.st6{fill:url(#SVGID_8_);}
	.st7{fill:url(#SVGID_9_);}
	.st8{fill:url(#SVGID_10_);}
	.st9{fill:url(#SVGID_11_);}
	.st10{fill:url(#SVGID_12_);}
	.st11{fill:url(#SVGID_13_);}
	.st12{fill:url(#SVGID_14_);}
	.st13{fill:url(#SVGID_15_);}
	.st14{fill:url(#SVGID_16_);}
	.st15{fill:url(#SVGID_17_);}
	.st16{fill:url(#SVGID_18_);}
	.st17{fill:url(#SVGID_19_);}
	.st18{fill:url(#SVGID_20_);}
	.st19{fill:url(#SVGID_21_);}
	.st20{fill:url(#SVGID_22_);}
	.st21{fill:url(#SVGID_23_);}
</style>
<g>
	<g>
		<g>
			<defs>
				<rect id="SVGID_1_" width="300" height="300"/>
			</defs>
			<clipPath id="SVGID_2_">
				<use xlink:href="#SVGID_1_"  style="overflow:visible;"/>
			</clipPath>
			<g class="st0">
				<g>
					<g>
						<linearGradient id="SVGID_3_" gradientUnits="userSpaceOnUse" x1="123.5" y1="304.1" x2="123.5" y2="252.8">
							<stop  offset="0" style="stop-color:#FFF276;stop-opacity:0"/>
							<stop  offset="1" style="stop-color:#FFF276"/>
						</linearGradient>
						<path class="st1" d="M133.5,254.8c2.2,0,4.2,1.2,5.3,3.1l10,17.5c1.1,1.9,1.1,4.3,0,6.1l-10,17.5c-1.1,1.9-3.1,3.1-5.3,3.1
							h-20c-2.2,0-4.2-1.2-5.3-3.1l-10-17.5c-1.1-1.9-1.1-4.3,0-6.1l10-17.5c1.1-1.9,3.1-3.1,5.3-3.1L133.5,254.8L133.5,254.8
							 M133.5,252.8L133.5,252.8h-20c-2.9,0-5.6,1.6-7.1,4.1l-10,17.5c-1.4,2.5-1.4,5.6,0,8.1l10,17.5c1.5,2.5,4.2,4.1,7.1,4.1l0,0
							h20c2.9,0,5.6-1.6,7.1-4.1l10-17.5c1.4-2.5,1.4-5.6,0-8.1l-10-17.5C139.2,254.3,136.5,252.8,133.5,252.8L133.5,252.8z"/>
					</g>
					<g>
						<linearGradient id="SVGID_4_" gradientUnits="userSpaceOnUse" x1="163.85" y1="324.5" x2="163.85" y2="289.3">
							<stop  offset="0" style="stop-color:#FFF276;stop-opacity:0"/>
							<stop  offset="1" style="stop-color:#FFF276"/>
						</linearGradient>
						<path class="st2" d="M170.4,291.3c1.5,0,2.9,0.8,3.7,2.1l6.6,11.4c0.7,1.3,0.7,2.9,0,4.2l-6.5,11.4c-0.8,1.3-2.2,2.1-3.7,2.1
							h-13c-1.5,0-2.9-0.8-3.7-2.1l-6.6-11.4c-0.7-1.3-0.7-2.9,0-4.2l6.5-11.4c0.8-1.3,2.2-2.1,3.7-2.1H170.4L170.4,291.3
							 M170.4,289.3L170.4,289.3h-13.1c-2.2,0-4.3,1.2-5.4,3.1l-6.5,11.4c-1.1,1.9-1.1,4.3,0,6.2l6.6,11.4c1.1,1.9,3.2,3.1,5.4,3.1
							l0,0h13c2.2,0,4.3-1.2,5.4-3.1l6.5-11.4c1.1-1.9,1.1-4.3,0-6.2l-6.6-11.4C174.7,290.5,172.6,289.3,170.4,289.3L170.4,289.3z"
							/>
					</g>
					<g>
						<linearGradient id="SVGID_5_" gradientUnits="userSpaceOnUse" x1="131.85" y1="335.2" x2="131.85" y2="308.1">
							<stop  offset="0" style="stop-color:#FFF276;stop-opacity:0"/>
							<stop  offset="1" style="stop-color:#FFF276"/>
						</linearGradient>
						<path class="st3" d="M136.8,310.1c1,0,2,0.6,2.5,1.5l5,8.6c0.5,0.9,0.5,2,0,2.9l-5,8.6c-0.5,0.9-1.5,1.5-2.5,1.5h-9.9
							c-1,0-2-0.6-2.5-1.5l-5-8.6c-0.5-0.9-0.5-2,0-2.9l5-8.6c0.5-0.9,1.5-1.5,2.5-1.5H136.8L136.8,310.1 M136.8,308.1L136.8,308.1
							h-9.9c-1.8,0-3.4,0.9-4.3,2.5l-5,8.6c-0.9,1.5-0.9,3.4,0,4.9l5,8.6c0.9,1.5,2.5,2.5,4.3,2.5l0,0h9.9c1.8,0,3.4-0.9,4.3-2.5
							l5-8.6c0.9-1.5,0.9-3.4,0-4.9l-5-8.6C140.2,309,138.5,308.1,136.8,308.1L136.8,308.1z"/>
					</g>
				</g>
				<g>
					<g>
						<linearGradient id="SVGID_6_" gradientUnits="userSpaceOnUse" x1="128.1" y1="152.1" x2="128.1" y2="100.8">
							<stop  offset="0" style="stop-color:#FFF276;stop-opacity:0"/>
							<stop  offset="1" style="stop-color:#FFF276"/>
						</linearGradient>
						<path class="st4" d="M138.1,102.8c2.2,0,4.2,1.2,5.3,3.1l10,17.5c1.1,1.9,1.1,4.3,0,6.1l-10,17.5c-1.1,1.9-3.1,3.1-5.3,3.1
							h-20c-2.2,0-4.2-1.2-5.3-3.1l-10-17.5c-1.1-1.9-1.1-4.3,0-6.1l10-17.5c1.1-1.9,3.1-3.1,5.3-3.1H138.1L138.1,102.8
							 M138.1,100.8L138.1,100.8h-20c-2.9,0-5.6,1.6-7.1,4.1l-10,17.5c-1.4,2.5-1.4,5.6,0,8.1l10,17.5c1.5,2.5,4.2,4.1,7.1,4.1l0,0
							h20c2.9,0,5.6-1.6,7.1-4.1l10-17.5c1.4-2.5,1.4-5.6,0-8.1l-10-17.5C143.7,102.3,141,100.8,138.1,100.8L138.1,100.8z"/>
					</g>
					<g>
						<linearGradient id="SVGID_7_" gradientUnits="userSpaceOnUse" x1="89.05" y1="172.5" x2="89.05" y2="137.3">
							<stop  offset="0" style="stop-color:#FFF276;stop-opacity:0"/>
							<stop  offset="1" style="stop-color:#FFF276"/>
						</linearGradient>
						<path class="st5" d="M95.6,139.3c1.5,0,2.9,0.8,3.7,2.1l6.6,11.4c0.7,1.3,0.7,2.9,0,4.2l-6.6,11.4c-0.8,1.3-2.2,2.1-3.7,2.1
							h-13c-1.5,0-2.9-0.8-3.7-2.1L72.2,157c-0.7-1.3-0.7-2.9,0-4.2l6.5-11.4c0.8-1.3,2.2-2.1,3.7-2.1H95.6L95.6,139.3 M95.6,137.3
							L95.6,137.3H82.5c-2.2,0-4.3,1.2-5.4,3.1l-6.5,11.4c-1.1,1.9-1.1,4.3,0,6.2l6.6,11.4c1.1,1.9,3.2,3.1,5.4,3.1l0,0h13
							c2.2,0,4.3-1.2,5.4-3.1l6.5-11.4c1.1-1.9,1.1-4.3,0-6.2l-6.6-11.4C99.9,138.5,97.8,137.3,95.6,137.3L95.6,137.3z"/>
					</g>
					<g>
						<linearGradient id="SVGID_8_" gradientUnits="userSpaceOnUse" x1="121.25" y1="183.2" x2="121.25" y2="156.1">
							<stop  offset="0" style="stop-color:#FFF276;stop-opacity:0"/>
							<stop  offset="1" style="stop-color:#FFF276"/>
						</linearGradient>
						<path class="st6" d="M126.2,158.1c1,0,2,0.6,2.5,1.5l5,8.6c0.5,0.9,0.5,2,0,2.9l-5,8.6c-0.5,0.9-1.5,1.5-2.5,1.5h-9.9
							c-1,0-2-0.6-2.5-1.5l-5-8.6c-0.5-0.9-0.5-2,0-2.9l5-8.6c0.5-0.9,1.5-1.5,2.5-1.5H126.2L126.2,158.1 M126.2,156.1L126.2,156.1
							h-9.9c-1.8,0-3.4,0.9-4.3,2.5l-5,8.6c-0.9,1.5-0.9,3.4,0,4.9l5,8.6c0.9,1.5,2.5,2.5,4.3,2.5l0,0h9.9c1.8,0,3.4-0.9,4.3-2.5
							l5-8.6c0.9-1.5,0.9-3.4,0-4.9l-5-8.6C129.6,157,127.9,156.1,126.2,156.1L126.2,156.1z"/>
					</g>
				</g>
				<g>
					<g>
						<linearGradient id="SVGID_9_" gradientUnits="userSpaceOnUse" x1="-36" y1="108.5" x2="-36" y2="57.2">
							<stop  offset="0" style="stop-color:#FFF276;stop-opacity:0"/>
							<stop  offset="1" style="stop-color:#FFF276"/>
						</linearGradient>
						<path class="st7" d="M-26,59.2c2.2,0,4.2,1.2,5.3,3.1l10,17.5c1.1,1.9,1.1,4.3,0,6.1l-10,17.5c-1.1,1.9-3.1,3.1-5.3,3.1h-20
							c-2.2,0-4.2-1.2-5.3-3.1l-10-17.5c-1.1-1.9-1.1-4.3,0-6.1l10-17.5c1.1-1.9,3.1-3.1,5.3-3.1L-26,59.2L-26,59.2 M-26,57.2
							L-26,57.2h-20c-2.9,0-5.6,1.6-7.1,4.1l-10,17.5c-1.4,2.5-1.4,5.6,0,8.1l10,17.5c1.5,2.5,4.2,4.1,7.1,4.1l0,0h20
							c2.9,0,5.6-1.6,7.1-4.1l10-17.5c1.4-2.5,1.4-5.6,0-8.1l-10-17.5C-20.4,58.7-23.1,57.2-26,57.2L-26,57.2z"/>
					</g>
					<g>
						<linearGradient id="SVGID_10_" gradientUnits="userSpaceOnUse" x1="4.25" y1="74.7" x2="4.25" y2="39.4">
							<stop  offset="0" style="stop-color:#FFF276;stop-opacity:0"/>
							<stop  offset="1" style="stop-color:#FFF276"/>
						</linearGradient>
						<path class="st8" d="M10.8,41.4c1.5,0,2.9,0.8,3.7,2.1L21.1,55c0.7,1.3,0.7,2.9,0,4.2l-6.5,11.4c-0.8,1.3-2.2,2.1-3.7,2.1h-13
							c-1.5,0-2.9-0.8-3.7-2.1l-6.6-11.4c-0.7-1.3-0.7-2.9,0-4.2L-6,43.5c0.8-1.3,2.2-2.1,3.7-2.1H10.8L10.8,41.4 M10.8,39.4
							L10.8,39.4H-2.3c-2.2,0-4.3,1.2-5.4,3.1L-14.2,54c-1.1,1.9-1.1,4.3,0,6.2l6.6,11.4c1.1,1.9,3.2,3.1,5.4,3.1l0,0h13
							c2.2,0,4.3-1.2,5.4-3.1l6.5-11.4c1.1-1.9,1.1-4.3,0-6.2l-6.6-11.4C15.2,40.6,13,39.4,10.8,39.4L10.8,39.4z"/>
					</g>
					<g>
						<linearGradient id="SVGID_11_" gradientUnits="userSpaceOnUse" x1="-27.75" y1="52.3" x2="-27.75" y2="25.2">
							<stop  offset="0" style="stop-color:#FFF276;stop-opacity:0"/>
							<stop  offset="1" style="stop-color:#FFF276"/>
						</linearGradient>
						<path class="st9" d="M-22.8,27.2c1,0,2,0.6,2.5,1.5l5,8.6c0.5,0.9,0.5,2,0,2.9l-5,8.6c-0.5,0.9-1.5,1.5-2.5,1.5h-9.9
							c-1,0-2-0.6-2.5-1.5l-5-8.6c-0.5-0.9-0.5-2,0-2.9l5-8.6c0.5-0.9,1.5-1.5,2.5-1.5L-22.8,27.2L-22.8,27.2 M-22.8,25.2
							L-22.8,25.2h-9.9c-1.8,0-3.4,0.9-4.3,2.5l-5,8.6c-0.9,1.5-0.9,3.4,0,4.9l5,8.6c0.9,1.5,2.5,2.5,4.3,2.5l0,0h9.9
							c1.8,0,3.4-0.9,4.3-2.5l5-8.6c0.9-1.5,0.9-3.4,0-4.9l-5-8.6C-19.4,26.1-21.1,25.2-22.8,25.2L-22.8,25.2z"/>
					</g>
				</g>
				<g>
					<g>
						<linearGradient id="SVGID_12_" gradientUnits="userSpaceOnUse" x1="292.6" y1="258.5" x2="292.6" y2="207.2">
							<stop  offset="0" style="stop-color:#FFF276;stop-opacity:0"/>
							<stop  offset="1" style="stop-color:#FFF276"/>
						</linearGradient>
						<path class="st10" d="M302.6,209.2c2.2,0,4.2,1.2,5.3,3.1l10,17.5c1.1,1.9,1.1,4.3,0,6.1l-10,17.5c-1.1,1.9-3.1,3.1-5.3,3.1
							h-20c-2.2,0-4.2-1.2-5.3-3.1l-10-17.5c-1.1-1.9-1.1-4.3,0-6.1l10-17.5c1.1-1.9,3.1-3.1,5.3-3.1L302.6,209.2L302.6,209.2
							 M302.6,207.2L302.6,207.2h-20c-2.9,0-5.6,1.6-7.1,4.1l-10,17.5c-1.4,2.5-1.4,5.6,0,8.1l10,17.5c1.5,2.5,4.2,4.1,7.1,4.1l0,0
							h20c2.9,0,5.6-1.6,7.1-4.1l10-17.5c1.4-2.5,1.4-5.6,0-8.1l-10-17.5C308.2,208.7,305.5,207.2,302.6,207.2L302.6,207.2z"/>
					</g>
					<g>
						<linearGradient id="SVGID_13_" gradientUnits="userSpaceOnUse" x1="252.55" y1="224.6" x2="252.55" y2="189.4">
							<stop  offset="0" style="stop-color:#FFF276;stop-opacity:0"/>
							<stop  offset="1" style="stop-color:#FFF276"/>
						</linearGradient>
						<path class="st11" d="M259.2,191.4c1.5,0,2.9,0.8,3.7,2.1l6.6,11.4c0.7,1.3,0.7,2.9,0,4.2l-6.5,11.4c-0.8,1.3-2.2,2.1-3.7,2.1
							h-13c-1.5,0-2.9-0.8-3.7-2.1l-6.6-11.4c-0.7-1.3-0.7-2.9,0-4.2l6.5-11.4c0.8-1.3,2.2-2.1,3.7-2.1H259.2L259.2,191.4
							 M259.2,189.4L259.2,189.4H246c-2.2,0-4.3,1.2-5.4,3.1l-6.5,11.4c-1.1,1.9-1.1,4.3,0,6.2l6.6,11.4c1.1,1.9,3.2,3.1,5.4,3.1
							l0,0h13c2.2,0,4.3-1.2,5.4-3.1l6.5-11.4c1.1-1.9,1.1-4.3,0-6.2l-6.6-11.4C263.5,190.6,261.4,189.4,259.2,189.4L259.2,189.4z"
							/>
					</g>
					<g>
						<linearGradient id="SVGID_14_" gradientUnits="userSpaceOnUse" x1="283.85" y1="203.3" x2="283.85" y2="176.2">
							<stop  offset="0" style="stop-color:#FFF276;stop-opacity:0"/>
							<stop  offset="1" style="stop-color:#FFF276"/>
						</linearGradient>
						<path class="st12" d="M288.8,178.2c1,0,2,0.6,2.5,1.5l5,8.6c0.5,0.9,0.5,2,0,2.9l-5,8.6c-0.5,0.9-1.5,1.5-2.5,1.5h-9.9
							c-1,0-2-0.6-2.5-1.5l-5-8.6c-0.5-0.9-0.5-2,0-2.9l5-8.6c0.5-0.9,1.5-1.5,2.5-1.5H288.8L288.8,178.2 M288.8,176.2L288.8,176.2
							h-9.9c-1.8,0-3.4,0.9-4.3,2.5l-5,8.6c-0.9,1.5-0.9,3.4,0,4.9l5,8.6c0.9,1.5,2.5,2.5,4.3,2.5l0,0h9.9c1.8,0,3.4-0.9,4.3-2.5
							l5-8.6c0.9-1.5,0.9-3.4,0-4.9l-5-8.6C292.2,177.1,290.5,176.2,288.8,176.2L288.8,176.2z"/>
					</g>
				</g>
				<g>
					<g>
						<linearGradient id="SVGID_15_" gradientUnits="userSpaceOnUse" x1="265" y1="108.5" x2="265" y2="57.2">
							<stop  offset="0" style="stop-color:#FFF276;stop-opacity:0"/>
							<stop  offset="1" style="stop-color:#FFF276"/>
						</linearGradient>
						<path class="st13" d="M275,59.2c2.2,0,4.2,1.2,5.3,3.1l10,17.5c1.1,1.9,1.1,4.3,0,6.1l-10,17.5c-1.1,1.9-3.1,3.1-5.3,3.1h-20
							c-2.2,0-4.2-1.2-5.3-3.1l-10-17.5c-1.1-1.9-1.1-4.3,0-6.1l10-17.5c1.1-1.9,3.1-3.1,5.3-3.1L275,59.2L275,59.2 M275,57.2
							L275,57.2h-20c-2.9,0-5.6,1.6-7.1,4.1l-10,17.5c-1.4,2.5-1.4,5.6,0,8.1l10,17.5c1.5,2.5,4.2,4.1,7.1,4.1l0,0h20
							c2.9,0,5.6-1.6,7.1-4.1l10-17.5c1.4-2.5,1.4-5.6,0-8.1l-10-17.5C280.6,58.7,277.9,57.2,275,57.2L275,57.2z"/>
					</g>
					<g>
						<linearGradient id="SVGID_16_" gradientUnits="userSpaceOnUse" x1="305.25" y1="74.7" x2="305.25" y2="39.4">
							<stop  offset="0" style="stop-color:#FFF276;stop-opacity:0"/>
							<stop  offset="1" style="stop-color:#FFF276"/>
						</linearGradient>
						<path class="st14" d="M311.8,41.4c1.5,0,2.9,0.8,3.7,2.1l6.6,11.4c0.7,1.3,0.7,2.9,0,4.2l-6.5,11.4c-0.8,1.3-2.2,2.1-3.7,2.1
							h-13c-1.5,0-2.9-0.8-3.7-2.1l-6.7-11.4c-0.7-1.3-0.7-2.9,0-4.2l6.5-11.4c0.8-1.3,2.2-2.1,3.7-2.1H311.8L311.8,41.4
							 M311.8,39.4L311.8,39.4h-13.1c-2.2,0-4.3,1.2-5.4,3.1L286.8,54c-1.1,1.9-1.1,4.3,0,6.2l6.6,11.4c1.1,1.9,3.2,3.1,5.4,3.1l0,0
							h13c2.2,0,4.3-1.2,5.4-3.1l6.5-11.4c1.1-1.9,1.1-4.3,0-6.2l-6.6-11.4C316.2,40.6,314,39.4,311.8,39.4L311.8,39.4z"/>
					</g>
					<g>
						<linearGradient id="SVGID_17_" gradientUnits="userSpaceOnUse" x1="273.25" y1="52.3" x2="273.25" y2="25.2">
							<stop  offset="0" style="stop-color:#FFF276;stop-opacity:0"/>
							<stop  offset="1" style="stop-color:#FFF276"/>
						</linearGradient>
						<path class="st15" d="M278.2,27.2c1,0,2,0.6,2.5,1.5l5,8.6c0.5,0.9,0.5,2,0,2.9l-5,8.6c-0.5,0.9-1.5,1.5-2.5,1.5h-9.9
							c-1,0-2-0.6-2.5-1.5l-5-8.6c-0.5-0.9-0.5-2,0-2.9l5-8.6c0.5-0.9,1.5-1.5,2.5-1.5L278.2,27.2L278.2,27.2 M278.2,25.2
							L278.2,25.2h-9.9c-1.8,0-3.4,0.9-4.3,2.5l-5,8.6c-0.9,1.5-0.9,3.4,0,4.9l5,8.6c0.9,1.5,2.5,2.5,4.3,2.5l0,0h9.9
							c1.8,0,3.4-0.9,4.3-2.5l5-8.6c0.9-1.5,0.9-3.4,0-4.9l-5-8.6C281.6,26.1,279.9,25.2,278.2,25.2L278.2,25.2z"/>
					</g>
				</g>
				<g>
					<g>
						<linearGradient id="SVGID_18_" gradientUnits="userSpaceOnUse" x1="-8.4" y1="258.5" x2="-8.4" y2="207.2">
							<stop  offset="0" style="stop-color:#FFF276;stop-opacity:0"/>
							<stop  offset="1" style="stop-color:#FFF276"/>
						</linearGradient>
						<path class="st16" d="M1.6,209.2c2.2,0,4.2,1.2,5.3,3.1l10,17.5c1.1,1.9,1.1,4.3,0,6.1l-10,17.5c-1.1,1.9-3.1,3.1-5.3,3.1h-20
							c-2.2,0-4.2-1.2-5.3-3.1l-10-17.5c-1.1-1.9-1.1-4.3,0-6.1l10-17.5c1.1-1.9,3.1-3.1,5.3-3.1L1.6,209.2L1.6,209.2 M1.6,207.2
							L1.6,207.2h-20c-2.9,0-5.6,1.6-7.1,4.1l-10,17.5c-1.4,2.5-1.4,5.6,0,8.1l10,17.5c1.5,2.5,4.2,4.1,7.1,4.1l0,0h20
							c2.9,0,5.6-1.6,7.1-4.1l10-17.5c1.4-2.5,1.4-5.6,0-8.1l-10-17.5C7.2,208.7,4.5,207.2,1.6,207.2L1.6,207.2z"/>
					</g>
					<g>
						<linearGradient id="SVGID_19_" gradientUnits="userSpaceOnUse" x1="-48.45" y1="224.6" x2="-48.45" y2="189.4">
							<stop  offset="0" style="stop-color:#FFF276;stop-opacity:0"/>
							<stop  offset="1" style="stop-color:#FFF276"/>
						</linearGradient>
						<path class="st17" d="M-41.8,191.4c1.5,0,2.9,0.8,3.7,2.1l6.6,11.4c0.7,1.3,0.7,2.9,0,4.2l-6.5,11.4c-0.8,1.3-2.2,2.1-3.7,2.1
							h-13c-1.5,0-2.9-0.8-3.7-2.1l-6.6-11.4c-0.7-1.3-0.7-2.9,0-4.2l6.5-11.4c0.8-1.3,2.2-2.1,3.7-2.1H-41.8L-41.8,191.4
							 M-41.8,189.4L-41.8,189.4H-55c-2.2,0-4.3,1.2-5.4,3.1l-6.5,11.4c-1.1,1.9-1.1,4.3,0,6.2l6.6,11.4c1.1,1.9,3.2,3.1,5.4,3.1
							l0,0h13c2.2,0,4.3-1.2,5.4-3.1l6.5-11.4c1.1-1.9,1.1-4.3,0-6.2l-6.6-11.4C-37.5,190.6-39.6,189.4-41.8,189.4L-41.8,189.4z"/>
					</g>
					<g>
						<linearGradient id="SVGID_20_" gradientUnits="userSpaceOnUse" x1="-17.15" y1="203.3" x2="-17.15" y2="176.2">
							<stop  offset="0" style="stop-color:#FFF276;stop-opacity:0"/>
							<stop  offset="1" style="stop-color:#FFF276"/>
						</linearGradient>
						<path class="st18" d="M-12.2,178.2c1,0,2,0.6,2.5,1.5l5,8.6c0.5,0.9,0.5,2,0,2.9l-5,8.6c-0.5,0.9-1.5,1.5-2.5,1.5h-9.9
							c-1,0-2-0.6-2.5-1.5l-5-8.6c-0.5-0.9-0.5-2,0-2.9l5-8.6c0.5-0.9,1.5-1.5,2.5-1.5H-12.2L-12.2,178.2 M-12.2,176.2L-12.2,176.2
							h-9.9c-1.8,0-3.4,0.9-4.3,2.5l-5,8.6c-0.9,1.5-0.9,3.4,0,4.9l5,8.6c0.9,1.5,2.5,2.5,4.3,2.5l0,0h9.9c1.8,0,3.4-0.9,4.3-2.5
							l5-8.6c0.9-1.5,0.9-3.4,0-4.9l-5-8.6C-8.8,177.1-10.5,176.2-12.2,176.2L-12.2,176.2z"/>
					</g>
				</g>
				<g>
					<g>
						<linearGradient id="SVGID_21_" gradientUnits="userSpaceOnUse" x1="123.5" y1="3.1" x2="123.5" y2="-48.2">
							<stop  offset="0" style="stop-color:#FFF276;stop-opacity:0"/>
							<stop  offset="1" style="stop-color:#FFF276"/>
						</linearGradient>
						<path class="st19" d="M133.5-46.2c2.2,0,4.2,1.2,5.3,3.1l10,17.5c1.1,1.9,1.1,4.3,0,6.1L138.9-2c-1.1,1.9-3.1,3.1-5.3,3.1h-20
							c-2.2,0-4.2-1.2-5.3-3.1l-10-17.5c-1.1-1.9-1.1-4.3,0-6.1l10-17.5c1.1-1.9,3.1-3.1,5.3-3.1L133.5-46.2L133.5-46.2 M133.5-48.2
							L133.5-48.2h-20c-2.9,0-5.6,1.6-7.1,4.1l-10,17.5c-1.4,2.5-1.4,5.6,0,8.1l10,17.5c1.5,2.5,4.2,4.1,7.1,4.1l0,0h20
							c2.9,0,5.6-1.6,7.1-4.1l10-17.5c1.4-2.5,1.4-5.6,0-8.1l-10-17.5C139.2-46.7,136.5-48.2,133.5-48.2L133.5-48.2z"/>
					</g>
					<g>
						<linearGradient id="SVGID_22_" gradientUnits="userSpaceOnUse" x1="163.85" y1="23.5" x2="163.85" y2="-11.7">
							<stop  offset="0" style="stop-color:#FFF276;stop-opacity:0"/>
							<stop  offset="1" style="stop-color:#FFF276"/>
						</linearGradient>
						<path class="st20" d="M170.4-9.7c1.5,0,2.9,0.8,3.7,2.1l6.5,11.4c0.7,1.3,0.7,2.9,0,4.2l-6.5,11.4c-0.8,1.3-2.2,2.1-3.7,2.1
							h-13c-1.5,0-2.9-0.8-3.7-2.1L147,8c-0.7-1.3-0.7-2.9,0-4.2l6.5-11.4c0.8-1.3,2.2-2.1,3.7-2.1L170.4-9.7L170.4-9.7 M170.4-11.7
							L170.4-11.7h-13.1c-2.2,0-4.3,1.2-5.4,3.1l-6.5,11.4c-1.1,1.9-1.1,4.3,0,6.2l6.6,11.4c1.1,1.9,3.2,3.1,5.4,3.1l0,0h13
							c2.2,0,4.3-1.2,5.4-3.1L182.3,9c1.1-1.9,1.1-4.3,0-6.2l-6.6-11.4C174.7-10.5,172.6-11.7,170.4-11.7L170.4-11.7z"/>
					</g>
					<g>
						<linearGradient id="SVGID_23_" gradientUnits="userSpaceOnUse" x1="131.85" y1="34.2" x2="131.85" y2="7.1">
							<stop  offset="0" style="stop-color:#FFF276;stop-opacity:0"/>
							<stop  offset="1" style="stop-color:#FFF276"/>
						</linearGradient>
						<path class="st21" d="M136.8,9.1c1,0,2,0.6,2.5,1.5l5,8.6c0.5,0.9,0.5,2,0,2.9l-5,8.6c-0.5,0.9-1.5,1.5-2.5,1.5h-9.9
							c-1,0-2-0.6-2.5-1.5l-5-8.6c-0.5-0.9-0.5-2,0-2.9l5-8.6c0.5-0.9,1.5-1.5,2.5-1.5H136.8L136.8,9.1 M136.8,7.1L136.8,7.1h-9.9
							c-1.8,0-3.4,0.9-4.3,2.5l-5,8.6c-0.9,1.5-0.9,3.4,0,4.9l5,8.6c0.9,1.5,2.5,2.5,4.3,2.5l0,0h9.9c1.8,0,3.4-0.9,4.3-2.5l5-8.6
							c0.9-1.5,0.9-3.4,0-4.9l-5-8.6C140.2,8,138.5,7.1,136.8,7.1L136.8,7.1z"/>
					</g>
				</g>
			</g>
		</g>
	</g>
</g>
</svg>
